  0
SECTION
  2
BLOCKS
  0
ENDSEC
  0
SECTION
  2
ENTITIES
  0
LINE
  8
0
 10
0.999999
 20
-8.35983
 11
1.00453
 21
-8.37712
  0
LINE
  8
0
 10
1.00453
 20
-8.37712
 11
1.01083
 21
-8.40119
  0
LINE
  8
0
 10
1.01083
 20
-8.40119
 11
1.01109
 21
-8.40213
  0
LINE
  8
0
 10
1.01109
 20
-8.40213
 11
1.02015
 21
-8.43507
  0
LINE
  8
0
 10
1.02015
 20
-8.43507
 11
1.03276
 21
-8.48092
  0
LINE
  8
0
 10
1.03276
 20
-8.48092
 11
1.04182
 21
-8.5151
  0
LINE
  8
0
 10
1.04182
 20
-8.5151
 11
1.05443
 21
-8.56267
  0
LINE
  8
0
 10
1.05443
 20
-8.56267
 11
1.05492
 21
-8.56452
  0
LINE
  8
0
 10
1.05492
 20
-8.56452
 11
1.06398
 21
-8.5987
  0
LINE
  8
0
 10
1.06398
 20
-8.5987
 11
1.07659
 21
-8.64627
  0
LINE
  8
0
 10
1.07659
 20
-8.64627
 11
1.07709
 21
-8.64814
  0
LINE
  8
0
 10
1.07709
 20
-8.64814
 11
1.08656
 21
-8.68191
  0
LINE
  8
0
 10
1.08656
 20
-8.68191
 11
1.09974
 21
-8.72891
  0
LINE
  8
0
 10
1.09974
 20
-8.72891
 11
1.10921
 21
-8.7635
  0
LINE
  8
0
 10
1.10921
 20
-8.7635
 11
1.12239
 21
-8.81164
  0
LINE
  8
0
 10
1.12239
 20
-8.81164
 11
1.12291
 21
-8.81353
  0
LINE
  8
0
 10
1.12291
 20
-8.81353
 11
1.12744
 21
-8.83123
  0
LINE
  8
0
 10
1.12744
 20
-8.83123
 11
1.13374
 21
-8.85588
  0
LINE
  8
0
 10
1.13374
 20
-8.85588
 11
1.134
 21
-8.85683
  0
LINE
  8
0
 10
1.134
 20
-8.85683
 11
1.13441
 21
-8.85724
  0
LINE
  8
0
 10
1.13441
 20
-8.85724
 11
1.135
 21
-8.85784
  0
LINE
  8
0
 10
1.135
 20
-8.85784
 11
1.13541
 21
-8.85826
  0
LINE
  8
0
 10
1.13541
 20
-8.85826
 11
1.13601
 21
-8.85886
  0
LINE
  8
0
 10
1.13601
 20
-8.85886
 11
1.137
 21
-8.86083
  0
LINE
  8
0
 10
1.137
 20
-8.86083
 11
1.13782
 21
-8.86124
  0
LINE
  8
0
 10
1.13782
 20
-8.86124
 11
1.13901
 21
-8.86184
  0
LINE
  8
0
 10
1.13901
 20
-8.86184
 11
1.15013
 21
-8.87255
  0
LINE
  8
0
 10
1.15013
 20
-8.87255
 11
1.16561
 21
-8.88745
  0
LINE
  8
0
 10
1.16561
 20
-8.88745
 11
1.16619
 21
-8.88804
  0
LINE
  8
0
 10
1.16619
 20
-8.88804
 11
1.18843
 21
-8.91028
  0
LINE
  8
0
 10
1.18843
 20
-8.91028
 11
1.21938
 21
-8.94122
  0
LINE
  8
0
 10
1.21938
 20
-8.94122
 11
1.22059
 21
-8.94243
  0
LINE
  8
0
 10
1.22059
 20
-8.94243
 11
1.242
 21
-8.96384
  0
LINE
  8
0
 10
1.242
 20
-8.96384
 11
1.2718
 21
-8.99365
  0
LINE
  8
0
 10
1.2718
 20
-8.99365
 11
1.29651
 21
-9.01835
  0
LINE
  8
0
 10
1.29651
 20
-9.01835
 11
1.3309
 21
-9.05274
  0
LINE
  8
0
 10
1.3309
 20
-9.05274
 11
1.33226
 21
-9.05409
  0
LINE
  8
0
 10
1.33226
 20
-9.05409
 11
1.35614
 21
-9.07797
  0
LINE
  8
0
 10
1.35614
 20
-9.07797
 11
1.38938
 21
-9.11121
  0
LINE
  8
0
 10
1.38938
 20
-9.11121
 11
1.41408
 21
-9.1355
  0
LINE
  8
0
 10
1.41408
 20
-9.1355
 11
1.44847
 21
-9.16932
  0
LINE
  8
0
 10
1.44847
 20
-9.16932
 11
1.44982
 21
-9.17065
  0
LINE
  8
0
 10
1.44982
 20
-9.17065
 11
1.46258
 21
-9.183
  0
LINE
  8
0
 10
1.46258
 20
-9.183
 11
1.48035
 21
-9.20019
  0
LINE
  8
0
 10
1.48035
 20
-9.20019
 11
1.48103
 21
-9.20087
  0
LINE
  8
0
 10
1.48103
 20
-9.20087
 11
1.48474
 21
-9.20458
  0
LINE
  8
0
 10
1.48474
 20
-9.20458
 11
1.49009
 21
-9.20994
  0
LINE
  8
0
 10
1.49009
 20
-9.20994
 11
1.49797
 21
-9.21781
  0
LINE
  8
0
 10
1.49797
 20
-9.21781
 11
1.49962
 21
-9.21946
  0
LINE
  8
0
 10
1.49962
 20
-9.21946
 11
1.502
 21
-9.22184
  0
LINE
  8
0
 10
1.502
 20
-9.22184
 11
1.5197
 21
-9.22679
  0
LINE
  8
0
 10
1.5197
 20
-9.22679
 11
1.54435
 21
-9.23366
  0
LINE
  8
0
 10
1.54435
 20
-9.23366
 11
1.5453
 21
-9.23392
  0
LINE
  8
0
 10
1.5453
 20
-9.23392
 11
1.57865
 21
-9.24298
  0
LINE
  8
0
 10
1.57865
 20
-9.24298
 11
1.62508
 21
-9.25559
  0
LINE
  8
0
 10
1.62508
 20
-9.25559
 11
1.66008
 21
-9.26465
  0
LINE
  8
0
 10
1.66008
 20
-9.26465
 11
1.70879
 21
-9.27726
  0
LINE
  8
0
 10
1.70879
 20
-9.27726
 11
1.7107
 21
-9.27775
  0
LINE
  8
0
 10
1.7107
 20
-9.27775
 11
1.7457
 21
-9.28681
  0
LINE
  8
0
 10
1.7457
 20
-9.28681
 11
1.79441
 21
-9.29942
  0
LINE
  8
0
 10
1.79441
 20
-9.29942
 11
1.7963
 21
-9.29992
  0
LINE
  8
0
 10
1.7963
 20
-9.29992
 11
1.83089
 21
-9.30939
  0
LINE
  8
0
 10
1.83089
 20
-9.30939
 11
1.87903
 21
-9.32257
  0
LINE
  8
0
 10
1.87903
 20
-9.32257
 11
1.88092
 21
-9.32309
  0
LINE
  8
0
 10
1.88092
 20
-9.32309
 11
1.91427
 21
-9.33215
  0
LINE
  8
0
 10
1.91427
 20
-9.33215
 11
1.9607
 21
-9.34476
  0
LINE
  8
0
 10
1.9607
 20
-9.34476
 11
1.9784
 21
-9.34929
  0
LINE
  8
0
 10
1.9784
 20
-9.34929
 11
2.00305
 21
-9.35559
  0
LINE
  8
0
 10
2.00305
 20
-9.35559
 11
2.004
 21
-9.35584
  0
LINE
  8
0
 10
2.004
 20
-9.35584
 11
2.15718
 21
-9.35625
  0
LINE
  8
0
 10
2.15718
 20
-9.35625
 11
2.3728
 21
-9.35683
  0
LINE
  8
0
 10
2.3728
 20
-9.35683
 11
2.37829
 21
-9.35683
  0
LINE
  8
0
 10
2.37829
 20
-9.35683
 11
2.50312
 21
-9.35683
  0
LINE
  8
0
 10
2.50312
 20
-9.35683
 11
2.51959
 21
-9.35725
  0
LINE
  8
0
 10
2.51959
 20
-9.35725
 11
2.54276
 21
-9.35783
  0
LINE
  8
0
 10
2.54276
 20
-9.35783
 11
2.54337
 21
-9.35783
  0
LINE
  8
0
 10
2.54337
 20
-9.35783
 11
2.54666
 21
-9.35742
  0
LINE
  8
0
 10
2.54666
 20
-9.35742
 11
2.55124
 21
-9.35685
  0
LINE
  8
0
 10
2.55124
 20
-9.35685
 11
2.56853
 21
-9.35643
  0
LINE
  8
0
 10
2.56853
 20
-9.35643
 11
2.59253
 21
-9.35586
  0
LINE
  8
0
 10
2.59253
 20
-9.35586
 11
2.59344
 21
-9.35585
  0
LINE
  8
0
 10
2.59344
 20
-9.35585
 11
2.59535
 21
-9.35585
  0
LINE
  8
0
 10
2.59535
 20
-9.35585
 11
2.60771
 21
-9.35626
  0
LINE
  8
0
 10
2.60771
 20
-9.35626
 11
2.624
 21
-9.35681
  0
LINE
  8
0
 10
2.624
 20
-9.35681
 11
2.93147
 21
-9.35681
  0
LINE
  8
0
 10
2.93147
 20
-9.35681
 11
3.17112
 21
-9.35639
  0
LINE
  8
0
 10
3.17112
 20
-9.35639
 11
3.4872
 21
-9.35585
  0
LINE
  8
0
 10
3.4872
 20
-9.35585
 11
3.75856
 21
-9.35626
  0
LINE
  8
0
 10
3.75856
 20
-9.35626
 11
4.11647
 21
-9.35681
  0
LINE
  8
0
 10
4.11647
 20
-9.35681
 11
4.48696
 21
-9.35681
  0
LINE
  8
0
 10
4.48696
 20
-9.35681
 11
4.48778
 21
-9.35639
  0
LINE
  8
0
 10
4.48778
 20
-9.35639
 11
4.48887
 21
-9.35585
  0
LINE
  8
0
 10
4.48887
 20
-9.35585
 11
4.89446
 21
-9.35626
  0
LINE
  8
0
 10
4.89446
 20
-9.35626
 11
5.42942
 21
-9.35681
  0
LINE
  8
0
 10
5.42942
 20
-9.35681
 11
14.2783
 21
-9.35681
  0
LINE
  8
0
 10
14.2783
 20
-9.35681
 11
14.6921
 21
-9.35639
  0
LINE
  8
0
 10
14.6921
 20
-9.35639
 11
15.238
 21
-9.35585
  0
LINE
  8
0
 10
15.238
 20
-9.35585
 11
15.3405
 21
-9.35626
  0
LINE
  8
0
 10
15.3405
 20
-9.35626
 11
15.4757
 21
-9.35681
  0
LINE
  8
0
 10
15.4757
 20
-9.35681
 11
15.8743
 21
-9.35639
  0
LINE
  8
0
 10
15.8743
 20
-9.35639
 11
16.4
 21
-9.35585
  0
LINE
  8
0
 10
16.4
 20
-9.35585
 11
18.0166
 21
-9.35585
  0
LINE
  8
0
 10
18.0166
 20
-9.35585
 11
18.1129
 21
-9.35626
  0
LINE
  8
0
 10
18.1129
 20
-9.35626
 11
18.24
 21
-9.35681
  0
LINE
  8
0
 10
18.24
 20
-9.35681
 11
18.3808
 21
-9.35639
  0
LINE
  8
0
 10
18.3808
 20
-9.35639
 11
18.5666
 21
-9.35585
  0
LINE
  8
0
 10
18.5666
 20
-9.35585
 11
18.8884
 21
-9.35585
  0
LINE
  8
0
 10
18.8884
 20
-9.35585
 11
18.9374
 21
-9.35626
  0
LINE
  8
0
 10
18.9374
 20
-9.35626
 11
19.002
 21
-9.35684
  0
LINE
  8
0
 10
19.002
 20
-9.35684
 11
19.005
 21
-9.35684
  0
LINE
  8
0
 10
19.005
 20
-9.35684
 11
19.0058
 21
-9.35643
  0
LINE
  8
0
 10
19.0058
 20
-9.35643
 11
19.007
 21
-9.35585
  0
LINE
  8
0
 10
19.007
 20
-9.35585
 11
19.0078
 21
-9.35544
  0
LINE
  8
0
 10
19.0078
 20
-9.35544
 11
19.009
 21
-9.35483
  0
LINE
  8
0
 10
19.009
 20
-9.35483
 11
19.0238
 21
-9.35113
  0
LINE
  8
0
 10
19.0238
 20
-9.35113
 11
19.0444
 21
-9.34599
  0
LINE
  8
0
 10
19.0444
 20
-9.34599
 11
19.0453
 21
-9.34576
  0
LINE
  8
0
 10
19.0453
 20
-9.34576
 11
19.0691
 21
-9.33917
  0
LINE
  8
0
 10
19.0691
 20
-9.33917
 11
19.1023
 21
-9.33004
  0
LINE
  8
0
 10
19.1023
 20
-9.33004
 11
19.1319
 21
-9.3218
  0
LINE
  8
0
 10
19.1319
 20
-9.3218
 11
19.173
 21
-9.31038
  0
LINE
  8
0
 10
19.173
 20
-9.31038
 11
19.1748
 21
-9.3099
  0
LINE
  8
0
 10
19.1748
 20
-9.3099
 11
19.211
 21
-9.30043
  0
LINE
  8
0
 10
19.211
 20
-9.30043
 11
19.2613
 21
-9.28729
  0
LINE
  8
0
 10
19.2613
 20
-9.28729
 11
19.2634
 21
-9.28675
  0
LINE
  8
0
 10
19.2634
 20
-9.28675
 11
19.2992
 21
-9.27686
  0
LINE
  8
0
 10
19.2992
 20
-9.27686
 11
19.3489
 21
-9.26315
  0
LINE
  8
0
 10
19.3489
 20
-9.26315
 11
19.351
 21
-9.26259
  0
LINE
  8
0
 10
19.351
 20
-9.26259
 11
19.3798
 21
-9.25518
  0
LINE
  8
0
 10
19.3798
 20
-9.25518
 11
19.4198
 21
-9.2449
  0
LINE
  8
0
 10
19.4198
 20
-9.2449
 11
19.4375
 21
-9.23996
  0
LINE
  8
0
 10
19.4375
 20
-9.23996
 11
19.462
 21
-9.2331
  0
LINE
  8
0
 10
19.462
 20
-9.2331
 11
19.4631
 21
-9.23281
  0
LINE
  8
0
 10
19.4631
 20
-9.23281
 11
19.4692
 21
-9.23117
  0
LINE
  8
0
 10
19.4692
 20
-9.23117
 11
19.4778
 21
-9.22888
  0
LINE
  8
0
 10
19.4778
 20
-9.22888
 11
19.4848
 21
-9.22723
  0
LINE
  8
0
 10
19.4848
 20
-9.22723
 11
19.4949
 21
-9.22485
  0
LINE
  8
0
 10
19.4949
 20
-9.22485
 11
19.4987
 21
-9.22402
  0
LINE
  8
0
 10
19.4987
 20
-9.22402
 11
19.504
 21
-9.22283
  0
LINE
  8
0
 10
19.504
 20
-9.22283
 11
19.5044
 21
-9.22242
  0
LINE
  8
0
 10
19.5044
 20
-9.22242
 11
19.505
 21
-9.22183
  0
LINE
  8
0
 10
19.505
 20
-9.22183
 11
19.5054
 21
-9.22101
  0
LINE
  8
0
 10
19.5054
 20
-9.22101
 11
19.506
 21
-9.21986
  0
LINE
  8
0
 10
19.506
 20
-9.21986
 11
19.5064
 21
-9.21986
  0
LINE
  8
0
 10
19.5064
 20
-9.21986
 11
19.507
 21
-9.21983
  0
LINE
  8
0
 10
19.507
 20
-9.21983
 11
19.5078
 21
-9.21942
  0
LINE
  8
0
 10
19.5078
 20
-9.21942
 11
19.509
 21
-9.21883
  0
LINE
  8
0
 10
19.509
 20
-9.21883
 11
19.5197
 21
-9.20771
  0
LINE
  8
0
 10
19.5197
 20
-9.20771
 11
19.5346
 21
-9.19229
  0
LINE
  8
0
 10
19.5346
 20
-9.19229
 11
19.5352
 21
-9.19166
  0
LINE
  8
0
 10
19.5352
 20
-9.19166
 11
19.5525
 21
-9.17478
  0
LINE
  8
0
 10
19.5525
 20
-9.17478
 11
19.5765
 21
-9.15136
  0
LINE
  8
0
 10
19.5765
 20
-9.15136
 11
19.5983
 21
-9.12953
  0
LINE
  8
0
 10
19.5983
 20
-9.12953
 11
19.6286
 21
-9.09926
  0
LINE
  8
0
 10
19.6286
 20
-9.09926
 11
19.6298
 21
-9.09802
  0
LINE
  8
0
 10
19.6298
 20
-9.09802
 11
19.6562
 21
-9.07166
  0
LINE
  8
0
 10
19.6562
 20
-9.07166
 11
19.6927
 21
-9.03511
  0
LINE
  8
0
 10
19.6927
 20
-9.03511
 11
19.6943
 21
-9.03357
  0
LINE
  8
0
 10
19.6943
 20
-9.03357
 11
19.7572
 21
-8.97066
  0
LINE
  8
0
 10
19.7572
 20
-8.97066
 11
19.7587
 21
-8.96915
  0
LINE
  8
0
 10
19.7587
 20
-8.96915
 11
19.7801
 21
-8.94856
  0
LINE
  8
0
 10
19.7801
 20
-8.94856
 11
19.8098
 21
-8.92
  0
LINE
  8
0
 10
19.8098
 20
-8.92
 11
19.823
 21
-8.90641
  0
LINE
  8
0
 10
19.823
 20
-8.90641
 11
19.8413
 21
-8.88756
  0
LINE
  8
0
 10
19.8413
 20
-8.88756
 11
19.842
 21
-8.88679
  0
LINE
  8
0
 10
19.842
 20
-8.88679
 11
19.8457
 21
-8.88268
  0
LINE
  8
0
 10
19.8457
 20
-8.88268
 11
19.8509
 21
-8.87697
  0
LINE
  8
0
 10
19.8509
 20
-8.87697
 11
19.8562
 21
-8.8712
  0
LINE
  8
0
 10
19.8562
 20
-8.8712
 11
19.8639
 21
-8.86288
  0
LINE
  8
0
 10
19.8639
 20
-8.86288
 11
19.8664
 21
-8.86
  0
LINE
  8
0
 10
19.8664
 20
-8.86
 11
19.8698
 21
-8.856
  0
LINE
  8
0
 10
19.8698
 20
-8.856
 11
19.8703
 21
-8.856
  0
LINE
  8
0
 10
19.8703
 20
-8.856
 11
19.871
 21
-8.85583
  0
LINE
  8
0
 10
19.871
 20
-8.85583
 11
19.871
 21
-8.855
  0
LINE
  8
0
 10
19.871
 20
-8.855
 11
19.871
 21
-8.85381
  0
LINE
  8
0
 10
19.871
 20
-8.85381
 11
19.8714
 21
-8.85299
  0
LINE
  8
0
 10
19.8714
 20
-8.85299
 11
19.872
 21
-8.85185
  0
LINE
  8
0
 10
19.872
 20
-8.85185
 11
19.872
 21
-8.84983
  0
LINE
  8
0
 10
19.872
 20
-8.84983
 11
19.8761
 21
-8.835
  0
LINE
  8
0
 10
19.8761
 20
-8.835
 11
19.8818
 21
-8.81444
  0
LINE
  8
0
 10
19.8818
 20
-8.81444
 11
19.8821
 21
-8.81359
  0
LINE
  8
0
 10
19.8821
 20
-8.81359
 11
19.8882
 21
-8.79012
  0
LINE
  8
0
 10
19.8882
 20
-8.79012
 11
19.8968
 21
-8.75756
  0
LINE
  8
0
 10
19.8968
 20
-8.75756
 11
19.905
 21
-8.72874
  0
LINE
  8
0
 10
19.905
 20
-8.72874
 11
19.9165
 21
-8.68875
  0
LINE
  8
0
 10
19.9165
 20
-8.68875
 11
19.9169
 21
-8.68707
  0
LINE
  8
0
 10
19.9169
 20
-8.68707
 11
19.9264
 21
-8.65165
  0
LINE
  8
0
 10
19.9264
 20
-8.65165
 11
19.9395
 21
-8.60253
  0
LINE
  8
0
 10
19.9395
 20
-8.60253
 11
19.9401
 21
-8.6005
  0
LINE
  8
0
 10
19.9401
 20
-8.6005
 11
19.9496
 21
-8.5655
  0
LINE
  8
0
 10
19.9496
 20
-8.5655
 11
19.9627
 21
-8.51695
  0
LINE
  8
0
 10
19.9627
 20
-8.51695
 11
19.9633
 21
-8.51491
  0
LINE
  8
0
 10
19.9633
 20
-8.51491
 11
19.9711
 21
-8.4865
  0
LINE
  8
0
 10
19.9711
 20
-8.4865
 11
19.9819
 21
-8.44708
  0
LINE
  8
0
 10
19.9819
 20
-8.44708
 11
19.9865
 21
-8.42896
  0
LINE
  8
0
 10
19.9865
 20
-8.42896
 11
19.9927
 21
-8.40383
  0
LINE
  8
0
 10
19.9927
 20
-8.40383
 11
19.993
 21
-8.40279
  0
LINE
  8
0
 10
19.993
 20
-8.40279
 11
19.9947
 21
-8.39662
  0
LINE
  8
0
 10
19.9947
 20
-8.39662
 11
19.9969
 21
-8.38805
  0
LINE
  8
0
 10
19.9969
 20
-8.38805
 11
19.9982
 21
-8.38311
  0
LINE
  8
0
 10
19.9982
 20
-8.38311
 11
20
 21
-8.37588
  0
LINE
  8
0
 10
20
 20
-8.37588
 11
20.0004
 21
-8.37258
  0
LINE
  8
0
 10
20.0004
 20
-8.37258
 11
20.001
 21
-8.36801
  0
LINE
  8
0
 10
20.001
 20
-8.36801
 11
20.001
 21
-7.93195
  0
LINE
  8
0
 10
20.001
 20
-7.93195
 11
20.001
 21
-7.32686
  0
LINE
  8
0
 10
20.001
 20
-7.32686
 11
20.001
 21
-4.10066
  0
LINE
  8
0
 10
20.001
 20
-4.10066
 11
20.0006
 21
-3.92113
  0
LINE
  8
0
 10
20.0006
 20
-3.92113
 11
20
 21
-3.66784
  0
LINE
  8
0
 10
20
 20
-3.66784
 11
19.4956
 21
-3.45866
  0
LINE
  8
0
 10
19.4956
 20
-3.45866
 11
18.7836
 21
-3.1634
  0
LINE
  8
0
 10
18.7836
 20
-3.1634
 11
18.5007
 21
-3.04604
  0
LINE
  8
0
 10
18.5007
 20
-3.04604
 11
18.1014
 21
-2.8804
  0
LINE
  8
0
 10
18.1014
 20
-2.8804
 11
18.0794
 21
-2.87127
  0
LINE
  8
0
 10
18.0794
 20
-2.87127
 11
17.0685
 21
-2.4525
  0
LINE
  8
0
 10
17.0685
 20
-2.4525
 11
15.6416
 21
-1.8614
  0
LINE
  8
0
 10
15.6416
 20
-1.8614
 11
15.542
 21
-1.82023
  0
LINE
  8
0
 10
15.542
 20
-1.82023
 11
15.4013
 21
-1.7621
  0
LINE
  8
0
 10
15.4013
 20
-1.7621
 11
15.3935
 21
-1.75888
  0
LINE
  8
0
 10
15.3935
 20
-1.75888
 11
15.2148
 21
-1.68476
  0
LINE
  8
0
 10
15.2148
 20
-1.68476
 11
14.9626
 21
-1.58014
  0
LINE
  8
0
 10
14.9626
 20
-1.58014
 11
14.6047
 21
-1.43191
  0
LINE
  8
0
 10
14.6047
 20
-1.43191
 11
14.0997
 21
-1.22267
  0
LINE
  8
0
 10
14.0997
 20
-1.22267
 11
12.3052
 21
-0.479841
  0
LINE
  8
0
 10
12.3052
 20
-0.479841
 11
9.77223
 21
0.568681
  0
LINE
  8
0
 10
9.77223
 20
0.568681
 11
9.63139
 21
0.627075
  0
LINE
  8
0
 10
9.63139
 20
0.627075
 11
9.41727
 21
0.716017
  0
LINE
  8
0
 10
9.41727
 20
0.716017
 11
9.25583
 21
0.783076
  0
LINE
  8
0
 10
9.25583
 20
0.783076
 11
8.17412
 21
1.23067
  0
LINE
  8
0
 10
8.17412
 20
1.23067
 11
7.35855
 21
1.56813
  0
LINE
  8
0
 10
7.35855
 20
1.56813
 11
6.60945
 21
1.8782
  0
LINE
  8
0
 10
6.60945
 20
1.8782
 11
5.13326
 21
2.48926
  0
LINE
  8
0
 10
5.13326
 20
2.48926
 11
3.16682
 21
3.30327
  0
LINE
  8
0
 10
3.16682
 20
3.30327
 11
2.998
 21
3.37317
  0
LINE
  8
0
 10
2.998
 20
3.37317
 11
3.97183
 21
5.72271
  0
LINE
  8
0
 10
3.97183
 20
5.72271
 11
5.32839
 21
8.99566
  0
LINE
  8
0
 10
5.32839
 20
8.99566
 11
5.35062
 21
9.05001
  0
LINE
  8
0
 10
5.35062
 20
9.05001
 11
5.3816
 21
9.12573
  0
LINE
  8
0
 10
5.3816
 20
9.12573
 11
5.40811
 21
9.18971
  0
LINE
  8
0
 10
5.40811
 20
9.18971
 11
5.41264
 21
9.20083
  0
LINE
  8
0
 10
5.41264
 20
9.20083
 11
5.41907
 21
9.21661
  0
LINE
  8
0
 10
5.41907
 20
9.21661
 11
5.42442
 21
9.22953
  0
LINE
  8
0
 10
5.42442
 20
9.22953
 11
5.43101
 21
9.24477
  0
LINE
  8
0
 10
5.43101
 20
9.24477
 11
5.44033
 21
9.26631
  0
LINE
  8
0
 10
5.44033
 20
9.26631
 11
5.44755
 21
9.28376
  0
LINE
  8
0
 10
5.44755
 20
9.28376
 11
6.44156
 21
11.6872
  0
LINE
  8
0
 10
6.44156
 20
11.6872
 11
7.84725
 21
15.0862
  0
LINE
  8
0
 10
7.84725
 20
15.0862
 11
7.85055
 21
15.094
  0
LINE
  8
0
 10
7.85055
 20
15.094
 11
7.85521
 21
15.1051
  0
LINE
  8
0
 10
7.85521
 20
15.1051
 11
7.86243
 21
15.1225
  0
LINE
  8
0
 10
7.86243
 20
15.1225
 11
7.86407
 21
15.1262
  0
LINE
  8
0
 10
7.86407
 20
15.1262
 11
7.8664
 21
15.1315
  0
LINE
  8
0
 10
7.8664
 20
15.1315
 11
7.87
 21
15.1402
  0
LINE
  8
0
 10
7.87
 20
15.1402
 11
7.86959
 21
15.1414
  0
LINE
  8
0
 10
7.86959
 20
15.1414
 11
7.86901
 21
15.1431
  0
LINE
  8
0
 10
7.86901
 20
15.1431
 11
7.86901
 21
15.1435
  0
LINE
  8
0
 10
7.86901
 20
15.1435
 11
7.869
 21
15.1442
  0
LINE
  8
0
 10
7.869
 20
15.1442
 11
7.86859
 21
15.145
  0
LINE
  8
0
 10
7.86859
 20
15.145
 11
7.868
 21
15.1462
  0
LINE
  8
0
 10
7.868
 20
15.1462
 11
7.86759
 21
15.1466
  0
LINE
  8
0
 10
7.86759
 20
15.1466
 11
7.86701
 21
15.1471
  0
LINE
  8
0
 10
7.86701
 20
15.1471
 11
7.8666
 21
15.148
  0
LINE
  8
0
 10
7.8666
 20
15.148
 11
7.86601
 21
15.1491
  0
LINE
  8
0
 10
7.86601
 20
15.1491
 11
7.8656
 21
15.15
  0
LINE
  8
0
 10
7.8656
 20
15.15
 11
7.865
 21
15.1512
  0
LINE
  8
0
 10
7.865
 20
15.1512
 11
7.86303
 21
15.1512
  0
LINE
  8
0
 10
7.86303
 20
15.1512
 11
7.85314
 21
15.161
  0
LINE
  8
0
 10
7.85314
 20
15.161
 11
7.83934
 21
15.1748
  0
LINE
  8
0
 10
7.83934
 20
15.1748
 11
7.83881
 21
15.1753
  0
LINE
  8
0
 10
7.83881
 20
15.1753
 11
7.81823
 21
15.1963
  0
LINE
  8
0
 10
7.81823
 20
15.1963
 11
7.78952
 21
15.2256
  0
LINE
  8
0
 10
7.78952
 20
15.2256
 11
7.76976
 21
15.2454
  0
LINE
  8
0
 10
7.76976
 20
15.2454
 11
7.74221
 21
15.2729
  0
LINE
  8
0
 10
7.74221
 20
15.2729
 11
7.74117
 21
15.274
  0
LINE
  8
0
 10
7.74117
 20
15.274
 11
7.71729
 21
15.2983
  0
LINE
  8
0
 10
7.71729
 20
15.2983
 11
7.68399
 21
15.3322
  0
LINE
  8
0
 10
7.68399
 20
15.3322
 11
7.68273
 21
15.3334
  0
LINE
  8
0
 10
7.68273
 20
15.3334
 11
7.6572
 21
15.3586
  0
LINE
  8
0
 10
7.6572
 20
15.3586
 11
7.62161
 21
15.3936
  0
LINE
  8
0
 10
7.62161
 20
15.3936
 11
7.59773
 21
15.4174
  0
LINE
  8
0
 10
7.59773
 20
15.4174
 11
7.56443
 21
15.4507
  0
LINE
  8
0
 10
7.56443
 20
15.4507
 11
7.56317
 21
15.452
  0
LINE
  8
0
 10
7.56317
 20
15.452
 11
7.55082
 21
15.4639
  0
LINE
  8
0
 10
7.55082
 20
15.4639
 11
7.53359
 21
15.4806
  0
LINE
  8
0
 10
7.53359
 20
15.4806
 11
7.53296
 21
15.4812
  0
LINE
  8
0
 10
7.53296
 20
15.4812
 11
7.5276
 21
15.4866
  0
LINE
  8
0
 10
7.5276
 20
15.4866
 11
7.52014
 21
15.494
  0
LINE
  8
0
 10
7.52014
 20
15.494
 11
7.5152
 21
15.4994
  0
LINE
  8
0
 10
7.5152
 20
15.4994
 11
7.50831
 21
15.5068
  0
LINE
  8
0
 10
7.50831
 20
15.5068
 11
7.50584
 21
15.5093
  0
LINE
  8
0
 10
7.50584
 20
15.5093
 11
7.50213
 21
15.513
  0
LINE
  8
0
 10
7.50213
 20
15.513
 11
7.48524
 21
15.5172
  0
LINE
  8
0
 10
7.48524
 20
15.5172
 11
7.46158
 21
15.523
  0
LINE
  8
0
 10
7.46158
 20
15.523
 11
7.4607
 21
15.5232
  0
LINE
  8
0
 10
7.4607
 20
15.5232
 11
7.42735
 21
15.5323
  0
LINE
  8
0
 10
7.42735
 20
15.5323
 11
7.38085
 21
15.5449
  0
LINE
  8
0
 10
7.38085
 20
15.5449
 11
7.37908
 21
15.5454
  0
LINE
  8
0
 10
7.37908
 20
15.5454
 11
7.34325
 21
15.5545
  0
LINE
  8
0
 10
7.34325
 20
15.5545
 11
7.29331
 21
15.5671
  0
LINE
  8
0
 10
7.29331
 20
15.5671
 11
7.25955
 21
15.5762
  0
LINE
  8
0
 10
7.25955
 20
15.5762
 11
7.21247
 21
15.5888
  0
LINE
  8
0
 10
7.21247
 20
15.5888
 11
7.21069
 21
15.5892
  0
LINE
  8
0
 10
7.21069
 20
15.5892
 11
7.17486
 21
15.5991
  0
LINE
  8
0
 10
7.17486
 20
15.5991
 11
7.12492
 21
15.6129
  0
LINE
  8
0
 10
7.12492
 20
15.6129
 11
7.09157
 21
15.6224
  0
LINE
  8
0
 10
7.09157
 20
15.6224
 11
7.04507
 21
15.6356
  0
LINE
  8
0
 10
7.04507
 20
15.6356
 11
7.0433
 21
15.6361
  0
LINE
  8
0
 10
7.0433
 20
15.6361
 11
7.02641
 21
15.6402
  0
LINE
  8
0
 10
7.02641
 20
15.6402
 11
7.00288
 21
15.6459
  0
LINE
  8
0
 10
7.00288
 20
15.6459
 11
7.002
 21
15.6462
  0
LINE
  8
0
 10
7.002
 20
15.6462
 11
7.002
 21
15.6452
  0
LINE
  8
0
 10
7.002
 20
15.6452
 11
4.80687
 21
15.6452
  0
LINE
  8
0
 10
4.80687
 20
15.6452
 11
4.30699
 21
15.6456
  0
LINE
  8
0
 10
4.30699
 20
15.6456
 11
3.60898
 21
15.6461
  0
LINE
  8
0
 10
3.60898
 20
15.6461
 11
2.03316
 21
15.6461
  0
LINE
  8
0
 10
2.03316
 20
15.6461
 11
2
 21
15.6462
  0
LINE
  8
0
 10
2
 20
15.6462
 11
1.99898
 21
15.6462
  0
LINE
  8
0
 10
1.99898
 20
15.6462
 11
1.99816
 21
15.6458
  0
LINE
  8
0
 10
1.99816
 20
15.6458
 11
1.99701
 21
15.6452
  0
LINE
  8
0
 10
1.99701
 20
15.6452
 11
1.99619
 21
15.6448
  0
LINE
  8
0
 10
1.99619
 20
15.6448
 11
1.995
 21
15.6442
  0
LINE
  8
0
 10
1.995
 20
15.6442
 11
1.98223
 21
15.6409
  0
LINE
  8
0
 10
1.98223
 20
15.6409
 11
1.96444
 21
15.6363
  0
LINE
  8
0
 10
1.96444
 20
15.6363
 11
1.96376
 21
15.6361
  0
LINE
  8
0
 10
1.96376
 20
15.6361
 11
1.93658
 21
15.6291
  0
LINE
  8
0
 10
1.93658
 20
15.6291
 11
1.89869
 21
15.6193
  0
LINE
  8
0
 10
1.89869
 20
15.6193
 11
1.87275
 21
15.6123
  0
LINE
  8
0
 10
1.87275
 20
15.6123
 11
1.83659
 21
15.6026
  0
LINE
  8
0
 10
1.83659
 20
15.6026
 11
1.83523
 21
15.6022
  0
LINE
  8
0
 10
1.83523
 20
15.6022
 11
1.80187
 21
15.5936
  0
LINE
  8
0
 10
1.80187
 20
15.5936
 11
1.75538
 21
15.5815
  0
LINE
  8
0
 10
1.75538
 20
15.5815
 11
1.75363
 21
15.5811
  0
LINE
  8
0
 10
1.75363
 20
15.5811
 11
1.72069
 21
15.572
  0
LINE
  8
0
 10
1.72069
 20
15.572
 11
1.67477
 21
15.5594
  0
LINE
  8
0
 10
1.67477
 20
15.5594
 11
1.67303
 21
15.5589
  0
LINE
  8
0
 10
1.67303
 20
15.5589
 11
1.63844
 21
15.5499
  0
LINE
  8
0
 10
1.63844
 20
15.5499
 11
1.59023
 21
15.5372
  0
LINE
  8
0
 10
1.59023
 20
15.5372
 11
1.57375
 21
15.5327
  0
LINE
  8
0
 10
1.57375
 20
15.5327
 11
1.55079
 21
15.5264
  0
LINE
  8
0
 10
1.55079
 20
15.5264
 11
1.54993
 21
15.5261
  0
LINE
  8
0
 10
1.54993
 20
15.5261
 11
1.54169
 21
15.5241
  0
LINE
  8
0
 10
1.54169
 20
15.5241
 11
1.53021
 21
15.5212
  0
LINE
  8
0
 10
1.53021
 20
15.5212
 11
1.52239
 21
15.5188
  0
LINE
  8
0
 10
1.52239
 20
15.5188
 11
1.51148
 21
15.5153
  0
LINE
  8
0
 10
1.51148
 20
15.5153
 11
1.50778
 21
15.5145
  0
LINE
  8
0
 10
1.50778
 20
15.5145
 11
1.5022
 21
15.5132
  0
LINE
  8
0
 10
1.5022
 20
15.5132
 11
1.50179
 21
15.5124
  0
LINE
  8
0
 10
1.50179
 20
15.5124
 11
1.50098
 21
15.5112
  0
LINE
  8
0
 10
1.50098
 20
15.5112
 11
1.50016
 21
15.5108
  0
LINE
  8
0
 10
1.50016
 20
15.5108
 11
1.49897
 21
15.5102
  0
LINE
  8
0
 10
1.49897
 20
15.5102
 11
1.49815
 21
15.5097
  0
LINE
  8
0
 10
1.49815
 20
15.5097
 11
1.497
 21
15.5092
  0
LINE
  8
0
 10
1.497
 20
15.5092
 11
1.495
 21
15.5072
  0
LINE
  8
0
 10
1.495
 20
15.5072
 11
1.48553
 21
15.4981
  0
LINE
  8
0
 10
1.48553
 20
15.4981
 11
1.47232
 21
15.4855
  0
LINE
  8
0
 10
1.47232
 20
15.4855
 11
1.47183
 21
15.485
  0
LINE
  8
0
 10
1.47183
 20
15.485
 11
1.4533
 21
15.4656
  0
LINE
  8
0
 10
1.4533
 20
15.4656
 11
1.42747
 21
15.4386
  0
LINE
  8
0
 10
1.42747
 20
15.4386
 11
1.42647
 21
15.4376
  0
LINE
  8
0
 10
1.42647
 20
15.4376
 11
1.4063
 21
15.4175
  0
LINE
  8
0
 10
1.4063
 20
15.4175
 11
1.37817
 21
15.3893
  0
LINE
  8
0
 10
1.37817
 20
15.3893
 11
1.35387
 21
15.3659
  0
LINE
  8
0
 10
1.35387
 20
15.3659
 11
1.32001
 21
15.3331
  0
LINE
  8
0
 10
1.32001
 20
15.3331
 11
1.31873
 21
15.3319
  0
LINE
  8
0
 10
1.31873
 20
15.3319
 11
1.2932
 21
15.3064
  0
LINE
  8
0
 10
1.2932
 20
15.3064
 11
1.25761
 21
15.2708
  0
LINE
  8
0
 10
1.25761
 20
15.2708
 11
1.23332
 21
15.2469
  0
LINE
  8
0
 10
1.23332
 20
15.2469
 11
1.19945
 21
15.2136
  0
LINE
  8
0
 10
1.19945
 20
15.2136
 11
1.19817
 21
15.2123
  0
LINE
  8
0
 10
1.19817
 20
15.2123
 11
1.18623
 21
15.2
  0
LINE
  8
0
 10
1.18623
 20
15.2
 11
1.16958
 21
15.1828
  0
LINE
  8
0
 10
1.16958
 20
15.1828
 11
1.16894
 21
15.1821
  0
LINE
  8
0
 10
1.16894
 20
15.1821
 11
1.16276
 21
15.1764
  0
LINE
  8
0
 10
1.16276
 20
15.1764
 11
1.15415
 21
15.1683
  0
LINE
  8
0
 10
1.15415
 20
15.1683
 11
1.1488
 21
15.1626
  0
LINE
  8
0
 10
1.1488
 20
15.1626
 11
1.14104
 21
15.1542
  0
LINE
  8
0
 10
1.14104
 20
15.1542
 11
1.13816
 21
15.1513
  0
LINE
  8
0
 10
1.13816
 20
15.1513
 11
1.13414
 21
15.1473
  0
LINE
  8
0
 10
1.13414
 20
15.1473
 11
1.13414
 21
15.1465
  0
LINE
  8
0
 10
1.13414
 20
15.1465
 11
1.134
 21
15.1451
  0
LINE
  8
0
 10
1.134
 20
15.1451
 11
1.134
 21
15.1402
  0
LINE
  8
0
 10
1.134
 20
15.1402
 11
1.13359
 21
15.1394
  0
LINE
  8
0
 10
1.13359
 20
15.1394
 11
1.133
 21
15.1382
  0
LINE
  8
0
 10
1.133
 20
15.1382
 11
1.1297
 21
15.1254
  0
LINE
  8
0
 10
1.1297
 20
15.1254
 11
1.12511
 21
15.1076
  0
LINE
  8
0
 10
1.12511
 20
15.1076
 11
1.12493
 21
15.1069
  0
LINE
  8
0
 10
1.12493
 20
15.1069
 11
1.1171
 21
15.0797
  0
LINE
  8
0
 10
1.1171
 20
15.0797
 11
1.1062
 21
15.0419
  0
LINE
  8
0
 10
1.1062
 20
15.0419
 11
1.0992
 21
15.0159
  0
LINE
  8
0
 10
1.0992
 20
15.0159
 11
1.08944
 21
14.9798
  0
LINE
  8
0
 10
1.08944
 20
14.9798
 11
1.08906
 21
14.9784
  0
LINE
  8
0
 10
1.08906
 20
14.9784
 11
1.08041
 21
14.9459
  0
LINE
  8
0
 10
1.08041
 20
14.9459
 11
1.06835
 21
14.9005
  0
LINE
  8
0
 10
1.06835
 20
14.9005
 11
1.0679
 21
14.8988
  0
LINE
  8
0
 10
1.0679
 20
14.8988
 11
1.05925
 21
14.8663
  0
LINE
  8
0
 10
1.05925
 20
14.8663
 11
1.0472
 21
14.8209
  0
LINE
  8
0
 10
1.0472
 20
14.8209
 11
1.04674
 21
14.8192
  0
LINE
  8
0
 10
1.04674
 20
14.8192
 11
1.03768
 21
14.7846
  0
LINE
  8
0
 10
1.03768
 20
14.7846
 11
1.02506
 21
14.7364
  0
LINE
  8
0
 10
1.02506
 20
14.7364
 11
1.02011
 21
14.7199
  0
LINE
  8
0
 10
1.02011
 20
14.7199
 11
1.01323
 21
14.697
  0
LINE
  8
0
 10
1.01323
 20
14.697
 11
1.01298
 21
14.6961
  0
LINE
  8
0
 10
1.01298
 20
14.6961
 11
1.01093
 21
14.6887
  0
LINE
  8
0
 10
1.01093
 20
14.6887
 11
1.00806
 21
14.6784
  0
LINE
  8
0
 10
1.00806
 20
14.6784
 11
1.006
 21
14.6705
  0
LINE
  8
0
 10
1.006
 20
14.6705
 11
1.00301
 21
14.6592
  0
LINE
  8
0
 10
1.00301
 20
14.6592
 11
1.00178
 21
14.6555
  0
LINE
  8
0
 10
1.00178
 20
14.6555
 11
1.00006
 21
14.6504
  0
LINE
  8
0
 10
1.00006
 20
14.6504
 11
1.00006
 21
13.8725
  0
LINE
  8
0
 10
1.00006
 20
13.8725
 11
0.999999
 21
12.788
  0
LINE
  8
0
 10
0.999999
 20
12.788
 11
0.999999
 21
-8.35983
  0
ENDSEC
  0
SECTION
  2
OBJECTS
  0
DICTIONARY
  0
ENDSEC
  0
EOF
